<?xml version="1.0" encoding="UTF-8" standalone="no"?>
<svg width="40px" height="48px" viewBox="0 0 40 48" version="1.1" xmlns="http://www.w3.org/2000/svg" xmlns:xlink="http://www.w3.org/1999/xlink">
    <!-- Generator: Sketch 3.8.3 (29802) - http://www.bohemiancoding.com/sketch -->
    <title>designers</title>
    <desc>Created with Sketch.</desc>
    <defs></defs>
    <g id="Page-1" stroke="none" stroke-width="1" fill="none" fill-rule="evenodd">
        <g id="designers" transform="translate(20.000000, 24.000000) scale(-1, 1) translate(-20.000000, -24.000000) translate(0.000000, -0.000000)" fill="#000000">
            <g id="Group">
                <path d="M24.1872906,0 L17.7833498,0 C13.6011823,0 9.64098522,1.66902857 6.63231527,4.69959184 C3.70108374,7.65227755 2.01980296,11.6521469 2.01980296,15.6734694 L2.01980296,21.4540408 L0.0684729064,31.1548408 C0.0105418719,31.4426449 0.0855172414,31.7410286 0.272610837,31.968 C0.459704433,32.1949714 0.739310345,32.3265306 1.03448276,32.3265306 L4.42325123,32.3265306 C5.24285714,33.7974857 5.15310345,35.1157224 5.07310345,36.2912327 C5.00197044,37.3363592 4.92847291,38.4171429 5.68128079,39.2180571 C6.29576355,39.8718367 7.29349754,40.1632653 8.91625616,40.1632653 L19.7536946,40.1632653 L19.7536946,48 L21.7241379,48 L21.7241379,39.1836735 C21.7241379,38.6427429 21.2830542,38.2040816 20.7389163,38.2040816 L8.91625616,38.2040816 C7.53270936,38.2040816 7.19221675,37.9562449 7.12078818,37.8802286 C6.9520197,37.7007673 6.99615764,37.0513959 7.03891626,36.4233796 C7.13704433,34.9809306 7.27152709,33.0054857 5.79497537,30.8035592 C5.61251232,30.5310367 5.30482759,30.3673469 4.97546798,30.3673469 L2.23635468,30.3673469 L3.97103448,21.7431184 C3.98374384,21.6798367 3.99014778,21.6154776 3.99014778,21.5510204 L3.99014778,15.6734694 C3.99014778,8.23954286 10.306601,1.95918367 17.7832512,1.95918367 L24.1871921,1.95918367 C31.7927094,1.95918367 37.9802956,8.11141224 37.9802956,15.6734694 L37.9802956,48 L39.9507389,48 L39.9507389,15.6734694 C39.9508374,7.03102041 32.8793103,0 24.1872906,0 L24.1872906,0 Z" id="Shape"></path>
                <path d="M24.9206897,10.1537633 L22.4576355,5.25580408 C22.2907389,4.92382041 21.9495567,4.71428571 21.5764532,4.71428571 C21.2033498,4.71428571 20.8621675,4.92391837 20.6952709,5.25580408 L18.2322167,10.1537633 C18.1626601,10.2919837 18.1299507,10.4420571 18.1299507,10.5918367 L18.1281773,10.5918367 L18.1281773,30.1836735 L18.1281773,34.1020408 C18.1281773,34.6429714 18.5692611,35.0816327 19.113399,35.0816327 L24.0395074,35.0816327 C24.5836453,35.0816327 25.0247291,34.6429714 25.0247291,34.1020408 L25.0247291,30.1836735 L25.0247291,10.5918367 L25.0229557,10.5918367 C25.0229557,10.4421551 24.9902463,10.2919837 24.9206897,10.1537633 L24.9206897,10.1537633 Z M21.5764532,7.8842449 L22.4454187,9.6122449 L20.7074877,9.6122449 L21.5764532,7.8842449 L21.5764532,7.8842449 Z M23.0542857,33.122449 L20.0986207,33.122449 L20.0986207,31.1632653 L23.0542857,31.1632653 L23.0542857,33.122449 L23.0542857,33.122449 Z M23.0542857,29.2040816 L20.0986207,29.2040816 L20.0986207,11.5714286 L23.0542857,11.5714286 L23.0542857,29.2040816 L23.0542857,29.2040816 Z" id="Shape" transform="translate(21.576453, 19.897959) rotate(-21.000000) translate(-21.576453, -19.897959) "></path>
            </g>
        </g>
    </g>
</svg>