<?xml version="1.0" encoding="UTF-8" standalone="no"?>
<svg width="40px" height="48px" viewBox="0 0 40 48" version="1.1" xmlns="http://www.w3.org/2000/svg" xmlns:xlink="http://www.w3.org/1999/xlink">
    <!-- Generator: Sketch 3.8.3 (29802) - http://www.bohemiancoding.com/sketch -->
    <title>marketers</title>
    <desc>Created with Sketch.</desc>
    <defs></defs>
    <g id="Page-1" stroke="none" stroke-width="1" fill="none" fill-rule="evenodd">
        <g id="marketers" transform="translate(20.000000, 24.000000) scale(-1, 1) translate(-20.000000, -24.000000) translate(0.000000, -0.000000)" fill="#000000">
            <g id="Group">
                <path d="M24.1872906,0 L17.7833498,0 C13.6011823,0 9.64098522,1.66902857 6.63231527,4.69959184 C3.70108374,7.65227755 2.01980296,11.6521469 2.01980296,15.6734694 L2.01980296,21.4540408 L0.0684729064,31.1548408 C0.0105418719,31.4426449 0.0855172414,31.7410286 0.272610837,31.968 C0.459704433,32.1949714 0.739310345,32.3265306 1.03448276,32.3265306 L4.42325123,32.3265306 C5.24285714,33.7974857 5.15310345,35.1157224 5.07310345,36.2912327 C5.00197044,37.3363592 4.92847291,38.4171429 5.68128079,39.2180571 C6.29576355,39.8718367 7.29349754,40.1632653 8.91625616,40.1632653 L19.7536946,40.1632653 L19.7536946,48 L21.7241379,48 L21.7241379,39.1836735 C21.7241379,38.6427429 21.2830542,38.2040816 20.7389163,38.2040816 L8.91625616,38.2040816 C7.53270936,38.2040816 7.19221675,37.9562449 7.12078818,37.8802286 C6.9520197,37.7007673 6.99615764,37.0513959 7.03891626,36.4233796 C7.13704433,34.9809306 7.27152709,33.0054857 5.79497537,30.8035592 C5.61251232,30.5310367 5.30482759,30.3673469 4.97546798,30.3673469 L2.23635468,30.3673469 L3.97103448,21.7431184 C3.98374384,21.6798367 3.99014778,21.6154776 3.99014778,21.5510204 L3.99014778,15.6734694 C3.99014778,8.23954286 10.306601,1.95918367 17.7832512,1.95918367 L24.1871921,1.95918367 C31.7927094,1.95918367 37.9802956,8.11141224 37.9802956,15.6734694 L37.9802956,48 L39.9507389,48 L39.9507389,15.6734694 C39.9508374,7.03102041 32.8793103,0 24.1872906,0 L24.1872906,0 Z" id="Shape"></path>
            </g>
            <text id="$" transform="translate(20.000000, 19.000000) scale(-1, 1) rotate(10.000000) translate(-20.000000, -19.000000) " font-family="Arial-Black, Arial Black" font-size="20" font-weight="700">
                <tspan x="13" y="27">$</tspan>
            </text>
        </g>
    </g>
</svg>